<?xml version="1.0" encoding="UTF-8"?>
<svg width="24" height="24" viewBox="0 0 24 24" fill="none" xmlns="http://www.w3.org/2000/svg">
  <path d="M12 12C13.1 12 14 11.1 14 10C14 8.9 13.1 8 12 8C10.9 8 10 8.9 10 10C10 11.1 10.9 12 12 12ZM12 14C10.67 14 9 13.33 9 10C9 6.67 10.67 6 12 6C13.33 6 15 6.67 15 10C15 13.33 13.33 14 12 14Z" fill="currentColor"/>
  <path d="M20 4H4C2.9 4 2 4.9 2 6V18C2 19.1 2.9 20 4 20H20C21.1 20 22 19.1 22 18V6C22 4.9 21.1 4 20 4ZM20 18H4V6H20V18Z" fill="currentColor"/>
</svg>